PathFileType	4	(X/Y/Z)	..\data\2014014\dynamic\2014014_C4_04.trc
DataRate	CameraRate	NumFrames	NumMarkers	Units	OrigDataRate	OrigDataStartFrame	OrigNumFrames
100.000000	100.000000	4	52	mm	100.000000	44	178
Frame#	Time	L_IAS			L_IPS			R_IPS			R_IAS			L_FTC			L_FLE			L_FME			L_FAX			L_TTC			L_FAL			L_TAM			L_FCC			L_FM1			L_FM2			L_FM5			R_FTC			R_FLE			R_FME			R_FAX			R_TTC			R_FAL			R_TAM			R_FCC			R_FM1			R_FM2			R_FM5			CV7			TV10			SXS			SJN			L_SIA			L_SRS			L_SAA			L_SAE			L_HLE			L_HME			L_UOA			L_RSP			L_UHE			L_HM2			L_HM5			R_SIA			R_SRS			R_SAA			R_SAE			R_HLE			R_HME			R_UOA			R_RSP			R_UHE			R_HM2			R_HM5			
		X1	Y1	Z1	X2	Y2	Z2	X3	Y3	Z3	X4	Y4	Z4	X5	Y5	Z5	X6	Y6	Z6	X7	Y7	Z7	X8	Y8	Z8	X9	Y9	Z9	X10	Y10	Z10	X11	Y11	Z11	X12	Y12	Z12	X13	Y13	Z13	X14	Y14	Z14	X15	Y15	Z15	X16	Y16	Z16	X17	Y17	Z17	X18	Y18	Z18	X19	Y19	Z19	X20	Y20	Z20	X21	Y21	Z21	X22	Y22	Z22	X23	Y23	Z23	X24	Y24	Z24	X25	Y25	Z25	X26	Y26	Z26	X27	Y27	Z27	X28	Y28	Z28	X29	Y29	Z29	X30	Y30	Z30	X31	Y31	Z31	X32	Y32	Z32	X33	Y33	Z33	X34	Y34	Z34	X35	Y35	Z35	X36	Y36	Z36	X37	Y37	Z37	X38	Y38	Z38	X39	Y39	Z39	X40	Y40	Z40	X41	Y41	Z41	X42	Y42	Z42	X43	Y43	Z43	X44	Y44	Z44	X45	Y45	Z45	X46	Y46	Z46	X47	Y47	Z47	X48	Y48	Z48	X49	Y49	Z49	X50	Y50	Z50	X51	Y51	Z51	X52	Y52	Z52	

45	0.44	421.3468322753907	997.2598266601565	-370.0042114257813	214.0310516357422	1018.781860351563	-281.2862854003907	216.749496459961	1011.978332519531	-176.371078491211	422.0137939453126	998.0161743164065	-116.4693374633789	326.4693298339844	897.973571777344	-428.9080505371095	270.2609863281251	498.4114379882814	-350.8345031738282	279.5557556152344	496.6173095703126	-213.4707641601563	243.9584503173829	440.4058227539064	-349.2351684570313	315.5940551757813	423.6781005859376	-304.0100402832032	205.1017761230469	66.12303924560548	-306.0416259765626	232.4224700927735	100.3665237426758	-211.8482360839844	153.5865478515625	24.06600189208985	-246.8371582031251	353.0817260742188	24.07436752319337	-207.5028228759766	369.1828002929688	37.1945915222168	-264.6203308105469	317.6174621582032	15.71138763427735	-325.7133789062501	374.2640380859376	899.5942382812502	-47.99192810058594	507.5281372070314	509.1170654296876	-77.28381347656251	541.1391601562501	514.4569702148439	-204.3567352294922	475.513885498047	460.0186767578126	-75.81817626953126	546.1437377929689	441.2296752929689	-120.8855285644532	341.6683349609376	116.6623916625977	-119.3143997192383	392.5097656250001	134.9774322509766	-210.1390838623047	299.9299316406251	89.1305618286133	-188.1016235351563	497.0606689453126	37.64168548583985	-188.953857421875	489.428436279297	55.14607620239259	-134.4455718994141	442.6056518554689	43.95962524414063	-87.89723205566408	268.4132385253907	1539.576538085938	-241.744125366211	172.5631713867188	1293.85009765625	-244.3356475830079	443.1203613281251	1263.806396484375	-238.157699584961	392.8931884765626	1445.263061523438	-232.0599975585938	160.1807708740235	1325.812377929688	-360.6379699707032	202.4458007812501	1465.560913085938	-359.5971984863282	247.3391265869141	1463.511108398438	-422.803192138672	296.6276855468751	1459.535522460938	-445.7862548828126	352.5275573730469	1122.9990234375	-540.3485107421876	306.0954284667969	1102.60546875	-461.3985290527345	315.4104309082032	1090.818969726563	-518.8823242187501	513.5386962890626	910.019714355469	-467.5424804687501	455.9070739746095	885.359313964844	-530.6749267578126	570.9613037109376	841.2005004882815	-477.8247680664064	480.2634277343751	804.8360595703127	-531.2202148437501	150.3452758789063	1321.711303710938	-126.4603729248047	205.759506225586	1463.83544921875	-110.7895889282227	248.6540832519532	1446.975463867188	-42.46021270751954	300.0540466308594	1441.633666992188	-25.32780647277833	275.0604248046876	1104.983276367188	52.8824806213379	261.9000854492188	1091.654907226563	-47.08170318603516	237.916244506836	1084.853515625	17.57684326171875	378.2980957031251	852.8662719726565	7.172283172607424	307.9354553222657	856.8027954101565	66.99909973144533	410.9190673828126	762.5312500000001	30.56602287292481	302.6898193359376	757.4680175781251	62.86542129516603	
46	0.45	431.3019104003907	995.6763916015627	-369.9410705566407	224.0462036132813	1018.1279296875	-280.9475097656251	227.1392211914063	1011.2314453125	-176.1040191650391	432.5192260742189	997.0739746093752	-116.5289764404297	335.3773498535157	896.9831542968752	-428.6687011718751	274.9839477539063	498.2855529785157	-350.4164428710938	284.5651245117188	496.452850341797	-213.0510559082032	248.0345001220704	440.6054687500001	-348.7486572265626	319.5982055664063	422.944793701172	-303.9418029785157	205.3410797119141	66.47742462158205	-305.4101867675782	233.3740692138672	100.6985015869141	-211.3170776367188	153.784408569336	24.656644821167	-245.8514556884766	353.4619140625001	23.87251281738282	-207.5910034179688	369.5023193359376	37.05301666259766	-264.7753601074219	317.4802246093751	15.64309883117676	-325.6721496582032	384.9060363769532	898.7668457031252	-47.78088760375977	517.4970092773439	507.8257751464845	-79.49654388427736	550.5746459960939	513.6447753906251	-206.4838256835938	487.7795715332032	457.2154541015626	-78.04733276367189	559.4617309570314	441.620330810547	-122.2625198364258	376.2011108398438	105.9152603149414	-120.1234436035157	426.9641723632814	126.9641876220703	-210.3671875000001	337.3843078613282	75.89580535888673	-189.4722290039063	536.8426513671876	36.34397506713868	-187.46728515625	527.4730224609376	53.19147109985353	-133.128402709961	480.8079833984376	39.38775253295899	-87.03273010253908	278.9952697753907	1538.689453125	-241.5409698486329	183.0885314941407	1293.025512695313	-244.6551666259766	453.623016357422	1262.775024414063	-238.0964050292969	403.401336669922	1444.322387695313	-231.7018432617188	171.1847839355469	1325.143310546875	-361.2096252441407	213.3981475830079	1464.9453125	-359.8277893066407	258.3306884765626	1463.103149414063	-422.9274902343751	307.9700317382813	1459.060546875	-445.6580200195314	365.8454284667969	1123.123657226563	-541.0083007812501	318.9418945312501	1102.123901367188	-462.5028076171876	328.8211975097657	1090.390502929688	-519.9509277343751	529.7130126953126	912.9766235351565	-466.6759033203126	472.9638061523439	887.098815917969	-530.1296386718751	588.4431762695314	845.2229003906252	-476.3532104492189	498.7858886718751	807.0052490234377	-530.2474365234376	160.372787475586	1320.57861328125	-127.2862930297852	215.9727020263672	1462.646484375	-111.0183792114258	258.8833007812501	1445.534423828125	-42.7153434753418	309.3954162597657	1440.4033203125	-25.21540260314942	283.1535339355469	1103.523315429688	52.18058395385744	270.5338134765626	1090.416259765625	-47.85539627075196	246.1328582763672	1083.591674804688	16.63344955444336	386.1147766113282	851.1228637695315	6.869141578674318	315.0151977539063	855.1685180664065	65.94336700439455	418.512176513672	761.0823364257814	30.7372169494629	309.6157226562501	755.7914428710939	61.4681739807129	
47	0.46	441.3847045898439	994.0838623046877	-369.8004150390626	234.1473999023438	1017.367004394531	-280.6326293945313	237.6048431396485	1010.325012207031	-175.8725280761719	443.0697326660157	996.0530395507815	-116.484603881836	344.5312500000001	895.9619140625002	-428.4270324707032	279.9572753906251	498.1423645019532	-349.9600830078126	289.8612365722657	496.2742919921876	-212.6270599365235	252.3515319824219	440.8067932128907	-348.2187500000001	323.8234863281251	422.1771545410157	-303.8310546875001	205.6262664794922	66.87419891357423	-304.6843566894532	234.4341735839844	101.0778579711914	-210.7219848632813	154.069320678711	25.31358718872071	-244.7228393554688	353.8617553710938	23.66527938842774	-207.6567535400391	369.8308410644532	36.88514709472657	-264.9279174804688	317.3273010253907	15.58967208862305	-325.5888977050782	395.3538208007814	897.6940917968752	-47.55315780639649	526.6049194335939	506.0996704101564	-81.83359527587892	559.3764038085939	512.3955688476564	-208.7281036376954	499.3299560546876	454.196258544922	-80.3927459716797	572.0076293945314	441.8121948242189	-123.6427078247071	410.9345092773439	96.19580841064456	-120.7052459716797	461.4934387207032	120.03076171875	-210.2921295166016	375.3710327148438	63.83399581909181	-190.6307220458985	576.2813110351564	36.37380981445313	-185.7473602294922	565.2655639648439	52.4176368713379	-131.5652313232422	518.9078369140626	35.92022323608399	-85.92239379882814	289.6442565917969	1537.694702148438	-241.2575225830079	193.6797485351563	1292.104614257813	-244.8691711425782	464.1942443847657	1261.660766601563	-237.9236450195313	413.9819946289064	1443.281494140625	-231.2620849609376	182.2427978515625	1324.39306640625	-361.6854553222657	224.4217376708985	1464.228759765625	-359.9674682617188	269.3636169433594	1462.6044921875	-422.9690551757814	319.4047241210938	1458.466918945313	-445.4282531738282	379.0163879394532	1123.15283203125	-541.5742797851564	331.6561584472657	1101.558227539063	-463.5211791992189	342.0762634277344	1089.890869140625	-520.9257812500001	545.5030517578126	915.717956542969	-465.7403564453126	489.6697082519532	888.7312011718752	-529.5385742187501	605.5039062500001	849.058288574219	-474.860321044922	516.9041137695314	809.0801391601565	-529.2685546875001	170.4978179931641	1319.374755859375	-127.972900390625	226.2619628906251	1461.374267578125	-111.1504669189453	269.2657165527344	1444.005004882813	-42.89117431640626	318.6806945800782	1439.145751953125	-24.96221351623536	291.4395141601563	1102.015380859375	51.55429458618165	279.3599853515626	1089.122680664063	-48.55296325683595	254.5405883789063	1082.2783203125	15.7717514038086	394.0257568359376	849.3181762695315	6.588014125823976	322.2971801757813	853.4956665039065	64.98007965087892	426.1234741210939	759.5111083984376	30.89278030395509	316.7238464355469	754.0986938476564	60.25122070312501	
48	0.47	451.5994262695314	992.495788574219	-369.6039428710938	244.3564758300782	1016.490356445313	-280.3326721191407	248.157455444336	1009.261657714844	-175.6651458740235	453.6843872070314	994.9559326171877	-116.3517837524414	353.9297790527344	894.9023437500002	-428.189178466797	285.1994018554688	497.978973388672	-349.4560852050782	295.4981384277344	496.0716857910157	-212.2027893066407	256.9270629882813	441.008270263672	-347.6362304687501	328.2846374511719	421.3692016601564	-303.6564025878907	205.9580230712891	67.32653808593751	-303.8588562011719	235.6054077148438	101.5073471069336	-210.0598144531251	154.4497375488282	26.05537986755372	-243.4567108154297	354.2764892578126	23.45701980590821	-207.6981658935547	370.1660156250001	36.6955795288086	-265.0728759765626	317.1611328125001	15.56479263305664	-325.4620971679688	405.6363525390626	896.3911743164065	-47.31243896484376	534.9306640625001	503.9978027343751	-84.30379486083986	567.6440429687501	510.7962646484376	-211.0988311767579	510.212860107422	451.035369873047	-82.85646820068361	583.8282470703126	441.8471679687501	-125.0548553466797	445.5484619140626	87.67970275878908	-121.033073425293	495.7699584960939	114.2932586669922	-209.9161376953126	413.5022277832032	53.12331771850587	-191.526611328125	615.0241088867189	37.7784538269043	-183.8135528564453	602.4835815429689	52.8907814025879	-129.7780456542969	556.5959472656251	33.66171646118165	-84.57614898681642	300.3578186035157	1536.598266601563	-240.8886260986329	204.3401031494141	1291.088500976563	-244.9700012207032	474.837615966797	1260.47509765625	-237.6473541259766	424.6352844238282	1442.14990234375	-230.7428436279297	193.3499145507813	1323.563110351563	-362.0546875000001	235.5052032470704	1463.413818359375	-360.0070495605469	280.4323425292969	1462.015014648438	-422.9189758300782	330.9096374511719	1457.765502929688	-445.0946350097657	392.0292968750001	1123.094360351563	-542.0390014648439	344.2394104003907	1100.919799804688	-464.4389038085939	355.1704101562501	1089.328979492188	-521.7924194335939	560.9098510742189	918.236999511719	-464.7482299804689	506.0078735351564	890.2481079101565	-528.9053955078126	622.1281738281251	852.678649902344	-473.3552246093751	534.5906982421876	811.0480957031252	-528.2921142578126	180.7286987304688	1318.107543945313	-128.5009460449219	236.6319274902344	1460.025512695313	-111.1779251098633	279.7840270996094	1442.398681640625	-42.97903442382813	327.9618225097657	1437.8583984375	-24.57768058776856	299.9237976074219	1100.46533203125	51.0130081176758	288.3822326660157	1087.785278320313	-49.16670608520509	263.1455383300782	1080.9208984375	15.00146484375	402.0374145507814	847.4671630859377	6.326202392578127	329.7956848144532	851.7940673828127	64.11803436279298	433.7521362304689	757.8219604492189	31.00384521484376	324.0240478515626	752.4011230468751	59.21870422363283	
